<?xml version="1.0" encoding="UTF-8"?><svg id="Layer_1" xmlns="http://www.w3.org/2000/svg" viewBox="0 0 5238.386 1552.806"><g><path d="m1848.618,917.653v-400.204h157.801c125.401,0,212.402,79.801,212.402,200.402s-87.001,199.802-212.402,199.802h-157.801Zm85.201-75.001h72.601c79.201,0,125.401-57,125.401-124.801,0-70.8-43.2-125.401-125.401-125.401h-72.601v250.202Z"/><path d="m2605.814,917.653v-288.003l-112.801,288.003h-37.2l-112.801-288.003v288.003h-85.201v-400.204h119.401l97.201,249.603,97.201-249.603h120.001v400.204h-85.801Z"/><path d="m2884.809,917.653l19.8-90.601h-190.802l13.8-61.801,214.803-247.803h100.801l-55.201,247.803h53.401l-13.2,61.801h-53.4l-19.801,90.601h-70.2Zm74.4-337.204l-163.202,184.802h121.802l41.4-184.802Z"/><path d="m3289.802,917.653l-99.001-171.602-46.2,43.8-28.201,127.802h-70.2l88.201-400.204h70.2l-40.8,184.802,193.201-184.802h91.201l-204.002,189.002,127.802,211.202h-82.201Z"/></g><path d="m1649.404,750.102v-349.998h209.3v25.9h-175v324.098h-34.3Z"/><path d="m3588.279,662.603v349.298h-209.299v-25.899h174.999v-323.398h34.3Z"/></svg>