<?xml version="1.0" encoding="UTF-8"?><svg id="Layer_1" xmlns="http://www.w3.org/2000/svg" viewBox="0 0 1974.052 871.918"><defs><style>.cls-1{fill:none;stroke:#000;stroke-miterlimit:10;stroke-width:50px;}</style></defs><g><path d="m153.589,604.753V205.454h166.979c132.858,0,218.525,79.134,218.525,200.375,0,119.79-85.667,198.924-217.799,198.924h-167.706Zm167.706-315.81h-71.874v232.319h71.147c79.86,0,120.516-52.997,120.516-115.434,0-65.34-36.3-116.886-119.79-116.886Z"/><path d="m940.566,604.753v-264.264l-111.078,264.264h-44.286l-111.078-264.264v264.264h-95.832V205.454h127.776l100.914,242.484,100.914-242.484h128.502v399.299h-95.832Z"/><path d="m1404.478,585.151v104.543h-103.092v-104.543h-231.593v-82.038l192.389-297.66h142.296v288.948h62.436v90.75h-62.436Zm-103.092-288.222l-130.68,197.472h130.68v-197.472Z"/><path d="m1749.318,604.753l-123.42-156.09-29.04,33.396v122.693h-95.831V205.454h95.831v169.158l141.57-169.158h116.159l-166.979,188.033,177.869,211.266h-116.159Z"/></g><polyline class="cls-1" points="1520.631 706.253 1949.052 706.253 1949.052 136.711 1860.62 136.711"/><polyline class="cls-1" points="123.138 690.955 25 690.955 25 136.711 498.12 136.711"/></svg>